<!-- <svg xmlns="http://www.w3.org/2000/svg" viewBox="0 0 60 60" className={this.props.className}><path d="M57 4h-7V1a1 1 0 0 0-1-1h-7a1 1 0 0 0-1 1v3H19V1a1 1 0 0 0-1-1h-7a1 1 0 0 0-1 1v3H3a1 1 0 0 0-1 1v54a1 1 0 0 0 1 1h54a1 1 0 0 0 1-1V5a1 1 0 0 0-1-1zM43 2h5v6h-5V2zM12 2h5v6h-5V2zM4 6h6v3a1 1 0 0 0 1 1h7a1 1 0 0 0 1-1V6h22v3a1 1 0 0 0 1 1h7a1 1 0 0 0 1-1V6h6v9H4V6zm0 52V17h52v41H4z"/><path d="M38 23H11v29h38V23H38zm-7 2h7v7h-7v-7zm7 16h-7v-7h7v7zm-16-7h7v7h-7v-7zm0-9h7v7h-7v-7zm-9 0h7v7h-7v-7zm0 9h7v7h-7v-7zm7 16h-7v-7h7v7zm9 0h-7v-7h7v7zm9 0h-7v-7h7v7zm9 0h-7v-7h7v7zm0-9h-7v-7h7v7zm0-16v7h-7v-7h7z"/></svg> -->
<?xml version="1.0" encoding="iso-8859-1"?>
<!-- Generator: Adobe Illustrator 19.0.0, SVG Export Plug-In . SVG Version: 6.00 Build 0)  -->
<svg version="1.1" id="Capa_1" className={this.props.className} xmlns="http://www.w3.org/2000/svg" xmlns:xlink="http://www.w3.org/1999/xlink" x="0px" y="0px"
	 viewBox="0 0 512 512" style="enable-background:new 0 0 512 512;" xml:space="preserve">
<g>
	<g>
		<path d="M452,40h-24V0h-40v40H124V0H84v40H60C26.916,40,0,66.916,0,100v352c0,33.084,26.916,60,60,60h392
			c33.084,0,60-26.916,60-60V100C512,66.916,485.084,40,452,40z M472,452c0,11.028-8.972,20-20,20H60c-11.028,0-20-8.972-20-20V188
			h432V452z M472,148H40v-48c0-11.028,8.972-20,20-20h24v40h40V80h264v40h40V80h24c11.028,0,20,8.972,20,20V148z"/>
	</g>
</g>
<g>
	<g>
		<rect x="76" y="230" width="40" height="40"/>
	</g>
</g>
<g>
	<g>
		<rect x="156" y="230" width="40" height="40"/>
	</g>
</g>
<g>
	<g>
		<rect x="236" y="230" width="40" height="40"/>
	</g>
</g>
<g>
	<g>
		<rect x="316" y="230" width="40" height="40"/>
	</g>
</g>
<g>
	<g>
		<rect x="396" y="230" width="40" height="40"/>
	</g>
</g>
<g>
	<g>
		<rect x="76" y="310" width="40" height="40"/>
	</g>
</g>
<g>
	<g>
		<rect x="156" y="310" width="40" height="40"/>
	</g>
</g>
<g>
	<g>
		<rect x="236" y="310" width="40" height="40"/>
	</g>
</g>
<g>
	<g>
		<rect x="316" y="310" width="40" height="40"/>
	</g>
</g>
<g>
	<g>
		<rect x="76" y="390" width="40" height="40"/>
	</g>
</g>
<g>
	<g>
		<rect x="156" y="390" width="40" height="40"/>
	</g>
</g>
<g>
	<g>
		<rect x="236" y="390" width="40" height="40"/>
	</g>
</g>
<g>
	<g>
		<rect x="316" y="390" width="40" height="40"/>
	</g>
</g>
<g>
	<g>
		<rect x="396" y="310" width="40" height="40"/>
	</g>
</g>
<g>
</g>
<g>
</g>
<g>
</g>
<g>
</g>
<g>
</g>
<g>
</g>
<g>
</g>
<g>
</g>
<g>
</g>
<g>
</g>
<g>
</g>
<g>
</g>
<g>
</g>
<g>
</g>
<g>
</g>
</svg>
