<!-- <svg xmlns="http://www.w3.org/2000/svg" viewBox="0 0 60 60" className={this.props.className}><path d="M48.937 21.001l8.994-8.095a1.217 1.217 0 0 0 .003-1.808l-8.997-8.097H29.664V1a1 1 0 1 0-2 0v2.001H10.061a3.4 3.4 0 0 0-3.396 3.396v11.206A3.4 3.4 0 0 0 10.061 21h17.604v2H11.063l-8.998 8.098a1.215 1.215 0 0 0 .001 1.805L11.063 41h16.601v18a1 1 0 1 0 2 0V41h20.604a3.4 3.4 0 0 0 3.396-3.396V26.396A3.4 3.4 0 0 0 50.268 23H29.664v-1.999h19.273zm2.727 5.395v11.207c0 .771-.626 1.396-1.396 1.396H11.831l-7.778-7 7.778-7h38.437c.77.001 1.396.627 1.396 1.397zm-43-8.792V6.397c0-.771.626-1.396 1.396-1.396h38.108l7.778 7-7.778 7H10.061c-.77 0-1.397-.627-1.397-1.397z"/></svg> -->
<?xml version="1.0" encoding="iso-8859-1"?>
<!-- Generator: Adobe Illustrator 19.0.0, SVG Export Plug-In . SVG Version: 6.00 Build 0)  -->
<svg version="1.1" id="Capa_1" className={this.props.className} xmlns="http://www.w3.org/2000/svg" xmlns:xlink="http://www.w3.org/1999/xlink" x="0px" y="0px"
	 viewBox="0 0 512 512" style="enable-background:new 0 0 512 512;" xml:space="preserve">
<g>
	<g>
		<path d="M266.909,0L17.519,249.87c-23.334,23.374-23.334,61.406,0.002,84.781l159.51,159.745
			c11.325,11.341,26.388,17.593,42.415,17.604c0.015,0,0.028,0,0.043,0c16.011,0,31.067-6.23,42.4-17.547l250.092-249.829V0H266.909
			z M471.982,228.043l-238.36,238.108c-3.778,3.772-8.795,5.849-14.132,5.849c-0.005,0-0.01,0-0.015,0
			c-5.343-0.004-10.364-2.088-14.139-5.868L45.827,306.389c-7.778-7.791-7.778-20.468,0.001-28.26L283.501,40h188.481V228.043z"/>
	</g>
</g>
<g>
	<g>
		<circle cx="375.98" cy="136" r="32"/>
	</g>
</g>
<g>
</g>
<g>
</g>
<g>
</g>
<g>
</g>
<g>
</g>
<g>
</g>
<g>
</g>
<g>
</g>
<g>
</g>
<g>
</g>
<g>
</g>
<g>
</g>
<g>
</g>
<g>
</g>
<g>
</g>
</svg>
